<svg width="801" height="140" viewBox="0 0 801 140" fill="none" xmlns="http://www.w3.org/2000/svg">
<path fill-rule="evenodd" clip-rule="evenodd" d="M22.4581 10.7957C35.1003 4.39745 50.6676 0 67.4048 0C83.287 0 99.4014 4.19771 112.079 10.6139C114.057 11.6147 114.848 14.0291 113.848 16.0067C112.847 17.9842 110.432 18.776 108.455 17.7751C96.8536 11.9038 81.9762 8.02618 67.4048 8.02618C52.0526 8.02618 37.719 12.0677 26.0824 17.957C24.1049 18.9578 21.6905 18.166 20.6896 16.1885C19.6888 14.2109 20.4806 11.7965 22.4581 10.7957ZM30.3907 24.7394C41.3397 19.6284 55.4286 16.9084 67.3523 16.9084C79.2927 16.9084 93.0291 19.6347 103.965 24.7394C116.155 30.4297 126.354 38.6891 133.341 48.3937C134.636 50.1923 134.228 52.7003 132.429 53.9953C130.631 55.2903 128.123 54.8821 126.828 53.0834C120.724 44.6069 111.651 37.1851 100.57 32.0122C90.8101 27.4564 78.2509 24.9346 67.3523 24.9346C56.437 24.9346 43.5318 27.4627 33.7856 32.0122C23.1731 36.9661 13.6602 44.9353 7.71833 53.2531C6.43 55.0565 3.92361 55.4741 2.12014 54.1858C0.316666 52.8975 -0.100944 50.3911 1.18738 48.5876C7.97227 39.0897 18.5889 30.2484 30.3907 24.7394ZM66.7755 33.4534C90.1246 33.2289 110.48 45.2532 120.801 62.495C126.216 71.5415 128.098 80.6305 128.098 88.3734C128.098 101.329 116.251 109.477 105.54 109.477C100.154 109.477 94.4633 108.035 89.9707 104.61C85.3548 101.09 82.2925 95.6805 82.0748 88.495C81.9355 83.8984 79.8185 80.829 76.9296 78.7878C73.9072 76.6522 70.0189 75.6599 66.814 75.6599C58.1114 75.6599 51.9188 82.0735 51.9188 88.3734C51.9188 93.4075 53.4917 100.435 55.5713 105.103C57.6752 109.825 61.4446 115.322 65.1433 118.669L65.1814 118.704L65.2186 118.739C71.2204 124.457 78.742 129.563 89.7644 132.073C91.9254 132.565 93.2782 134.716 92.786 136.877C92.2938 139.038 90.143 140.391 87.982 139.899C75.2717 137.004 66.514 131.05 59.7189 124.585C55.0771 120.371 50.7148 113.925 48.2398 108.37C45.7336 102.744 43.8926 94.6076 43.8926 88.3734C43.8926 76.8558 54.5066 67.6337 66.814 67.6337C71.4271 67.6337 76.9929 69.0049 81.5612 72.2328C86.2629 75.555 89.8729 80.8489 90.0973 88.2519C90.2431 93.0658 92.1807 96.2015 94.8373 98.2271C97.617 100.347 101.471 101.451 105.54 101.451C113.022 101.451 120.071 95.7811 120.071 88.3734C120.071 81.935 118.511 74.2974 113.914 66.6173C105.097 51.888 87.4314 41.2814 66.8526 41.4792C49.0141 41.6508 29.9991 50.0728 20.2644 66.427C16.112 73.403 14.0296 81.3751 14.2821 89.7064C14.6276 101.11 16.2984 105.925 19.2975 113.863C20.0807 115.937 19.0349 118.252 16.9616 119.036C14.8882 119.819 12.5725 118.773 11.7892 116.7C8.60667 108.275 6.64125 102.545 6.25956 89.9495C5.96108 80.0996 8.42944 70.6178 13.3676 62.3217C24.8443 43.0409 46.7973 33.6455 66.7755 33.4534ZM25.1661 87.6087C25.1901 66.911 45.1467 50.5435 66.814 50.5435C88.3751 50.5435 109.189 65.3737 109.189 88.9188C109.189 91.1352 107.393 92.9319 105.176 92.9319C102.96 92.9319 101.163 91.1352 101.163 88.9188C101.163 71.011 85.2515 58.5697 66.814 58.5697C48.496 58.5697 33.1922 72.363 33.1922 87.6462V87.6829L33.1916 87.7196C33.038 96.1131 34.3759 104.143 38.7542 112.732C43.2097 121.471 48.5689 127.412 53.4663 131.723C55.1299 133.187 55.2914 135.723 53.8269 137.387C52.3625 139.051 49.8267 139.212 48.163 137.748C42.6557 132.899 36.6023 126.182 31.6036 116.377C26.5341 106.433 24.9973 97.0686 25.1661 87.6087ZM66.814 84.3603C69.0304 84.3603 70.8271 86.157 70.8271 88.3734C70.8271 93.4169 72.2119 98.1891 74.8344 102.729C77.3712 107.121 80.6752 110.285 85.178 113.013C91.7037 116.574 96.2264 117.808 103.074 117.633L103.101 117.632L103.129 117.632C105.807 117.6 108.956 117.379 111.455 116.944C113.639 116.563 115.718 118.024 116.098 120.207C116.479 122.391 115.018 124.47 112.834 124.85C109.793 125.381 106.201 125.621 103.251 125.657C94.772 125.87 88.8576 124.175 81.2508 120.013L81.1768 119.973L81.1046 119.929C75.5829 116.599 71.2106 112.502 67.8843 106.744C64.6302 101.11 62.801 94.9659 62.801 88.3734C62.801 86.157 64.5977 84.3603 66.814 84.3603Z" fill="#F04405"/>
<path d="M179.799 65.9775H207.228V75.2611H179.799V106.277H167.562V33.4849H212.292L211.026 42.7685H179.799V65.9775Z" fill="#919194"/>
<path d="M244.849 23.2518C247.1 23.2518 248.928 23.9903 250.335 25.4672C251.812 26.8738 252.55 28.6321 252.55 30.742C252.55 32.8519 251.812 34.6102 250.335 36.0168C248.928 37.4234 247.1 38.1267 244.849 38.1267C242.528 38.1267 240.664 37.4234 239.258 36.0168C237.851 34.6102 237.148 32.8519 237.148 30.742C237.148 28.5618 237.851 26.7684 239.258 25.3617C240.735 23.9551 242.598 23.2518 244.849 23.2518ZM252.972 97.6262H268.164V106.277H224.594V97.6262H241.157V59.2258H225.121V50.5752H252.972V97.6262Z" fill="#919194"/>
<path d="M281.626 50.5752H291.859L292.703 57.8544C295.024 55.0411 297.731 52.8961 300.826 51.4191C303.991 49.8719 307.296 49.0982 310.742 49.0982C315.877 49.0982 319.745 50.54 322.347 53.4235C324.949 56.3071 326.25 60.3862 326.25 65.661V106.277H314.435V71.5688C314.435 68.1226 314.224 65.4852 313.802 63.6566C313.45 61.7577 312.712 60.3862 311.586 59.5423C310.461 58.628 308.773 58.1708 306.523 58.1708C303.991 58.1708 301.564 58.9445 299.243 60.4917C296.993 62.039 295.059 63.9731 293.441 66.294V106.277H281.626V50.5752Z" fill="#919194"/>
<path d="M390.667 53.318C388.627 54.0214 386.306 54.5137 383.704 54.795C381.172 55.006 378.113 55.1115 374.526 55.1115C377.902 56.6587 380.434 58.5928 382.122 60.9137C383.81 63.2346 384.654 66.0478 384.654 69.3534C384.654 73.0105 383.739 76.2457 381.911 79.059C380.152 81.8722 377.621 84.0876 374.315 85.7052C371.01 87.3228 367.106 88.1316 362.605 88.1316C359.44 88.1316 356.908 87.8151 355.009 87.1821C354.236 87.7447 353.638 88.448 353.216 89.292C352.794 90.0656 352.583 90.9096 352.583 91.8239C352.583 94.6371 354.869 96.0437 359.44 96.0437H369.146C373.084 96.0437 376.601 96.7119 379.695 98.0481C382.79 99.3844 385.181 101.248 386.869 103.639C388.627 105.96 389.506 108.598 389.506 111.552C389.506 117.108 387.115 121.398 382.333 124.422C377.55 127.517 370.658 129.064 361.656 129.064C355.396 129.064 350.438 128.396 346.781 127.059C343.194 125.793 340.627 123.895 339.08 121.363C337.603 118.901 336.864 115.701 336.864 111.763H347.414C347.414 113.872 347.801 115.525 348.574 116.721C349.418 117.987 350.86 118.901 352.899 119.464C354.939 120.097 357.893 120.413 361.761 120.413C367.388 120.413 371.432 119.71 373.893 118.303C376.355 116.967 377.585 114.963 377.585 112.29C377.585 110.039 376.601 108.281 374.632 107.015C372.733 105.82 370.13 105.222 366.825 105.222H357.225C352.231 105.222 348.433 104.202 345.831 102.162C343.299 100.123 342.033 97.5558 342.033 94.4613C342.033 92.5624 342.561 90.7338 343.616 88.9755C344.671 87.2173 346.183 85.7052 348.152 84.4392C344.847 82.681 342.42 80.5711 340.873 78.1095C339.396 75.5776 338.658 72.4831 338.658 68.8259C338.658 64.9577 339.642 61.5467 341.611 58.5928C343.581 55.5686 346.324 53.2477 349.84 51.6301C353.357 49.9422 357.365 49.0982 361.867 49.0982C367.915 49.1686 372.697 48.7466 376.214 47.8323C379.801 46.918 383.599 45.4762 387.607 43.507L390.667 53.318ZM361.972 57.3269C358.245 57.3269 355.431 58.3818 353.532 60.4917C351.634 62.5313 350.684 65.3094 350.684 68.8259C350.684 72.4127 351.634 75.2611 353.532 77.371C355.502 79.4106 358.35 80.4304 362.078 80.4304C365.594 80.4304 368.267 79.4106 370.095 77.371C371.924 75.3314 372.838 72.4127 372.838 68.6149C372.838 61.0896 369.216 57.3269 361.972 57.3269Z" fill="#919194"/>
<path d="M409.509 82.2238C409.861 87.6392 411.408 91.7184 414.151 94.4613C416.964 97.1338 420.481 98.4701 424.701 98.4701C427.303 98.4701 429.764 98.0833 432.085 97.3097C434.477 96.4657 436.903 95.2349 439.365 93.6173L444.428 100.791C441.826 102.971 438.767 104.659 435.25 105.855C431.734 107.05 428.041 107.648 424.173 107.648C415.663 107.648 409.052 105.011 404.34 99.7361C399.628 94.391 397.272 87.2876 397.272 78.426C397.272 72.8699 398.292 67.8764 400.331 63.4456C402.371 58.9445 405.325 55.428 409.193 52.8961C413.061 50.3642 417.562 49.0982 422.696 49.0982C430.081 49.0982 435.918 51.595 440.209 56.5884C444.569 61.5115 446.749 68.2984 446.749 76.949C446.749 79.0589 446.644 80.8172 446.433 82.2238H409.509ZM422.802 57.8544C419.004 57.8544 415.909 59.2258 413.518 61.9687C411.127 64.7116 409.755 68.7907 409.404 74.2062H435.25C435.11 68.9314 433.984 64.8874 431.874 62.0742C429.764 59.261 426.74 57.8544 422.802 57.8544Z" fill="#919194"/>
<path d="M498.19 49.2037C501.073 49.2037 503.887 49.6609 506.63 50.5752L504.625 71.1468H496.185V59.7533C492.317 59.8236 488.941 61.3709 486.058 64.3951C483.245 67.4193 480.994 71.6743 479.306 77.16V97.8371H490.489V106.277H459.262V97.8371H467.491V59.0148H459.262V50.5752H476.458L478.568 63.4456C480.748 58.6632 483.385 55.1115 486.48 52.7906C489.645 50.3993 493.548 49.2037 498.19 49.2037Z" fill="#919194"/>
<path d="M544.989 49.0982C558.492 49.0982 565.244 58.839 565.244 78.3205C565.244 87.1118 563.38 94.2151 559.653 99.6306C555.925 104.976 550.615 107.648 543.723 107.648C537.885 107.648 533.173 105.609 529.586 101.529V127.692L517.771 129.064V50.5752H528.004L528.742 57.7489C530.852 54.9357 533.279 52.7906 536.022 51.3136C538.835 49.8367 541.824 49.0982 544.989 49.0982ZM541.718 58.1708C539.257 58.1708 537.006 58.9093 534.967 60.3862C532.927 61.8632 531.134 63.7973 529.586 66.1885V92.2459C532.329 96.3954 535.986 98.4701 540.558 98.4701C544.637 98.4701 547.696 96.8525 549.736 93.6173C551.776 90.3821 552.795 85.3184 552.795 78.426C552.795 71.3226 551.881 66.1885 550.052 63.0236C548.224 59.7884 545.446 58.1708 541.718 58.1708Z" fill="#919194"/>
<path d="M616.262 49.2037C619.146 49.2037 621.959 49.6609 624.702 50.5752L622.698 71.1468H614.258V59.7533C610.39 59.8236 607.014 61.3709 604.13 64.3951C601.317 67.4193 599.067 71.6743 597.379 77.16V97.8371H608.561V106.277H577.335V97.8371H585.563V59.0148H577.335V50.5752H594.53L596.64 63.4456C598.82 58.6632 601.458 55.1115 604.552 52.7906C607.717 50.3993 611.621 49.2037 616.262 49.2037Z" fill="#919194"/>
<path d="M658.103 23.2518C660.353 23.2518 662.182 23.9903 663.589 25.4672C665.066 26.8738 665.804 28.6321 665.804 30.742C665.804 32.8519 665.066 34.6102 663.589 36.0168C662.182 37.4234 660.353 38.1267 658.103 38.1267C655.782 38.1267 653.918 37.4234 652.512 36.0168C651.105 34.6102 650.402 32.8519 650.402 30.742C650.402 28.5618 651.105 26.7684 652.512 25.3617C653.989 23.9551 655.852 23.2518 658.103 23.2518ZM666.226 97.6262H681.417V106.277H637.848V97.6262H654.411V59.2258H638.375V50.5752H666.226V97.6262Z" fill="#919194"/>
<path d="M694.88 50.5752H705.113L705.957 57.8544C708.278 55.0411 710.985 52.8961 714.08 51.4191C717.245 49.8719 720.55 49.0982 723.996 49.0982C729.131 49.0982 732.999 50.54 735.601 53.4235C738.203 56.3071 739.504 60.3862 739.504 65.661V106.277H727.689V71.5688C727.689 68.1226 727.478 65.4852 727.056 63.6566C726.704 61.7577 725.966 60.3862 724.84 59.5423C723.715 58.628 722.027 58.1708 719.777 58.1708C717.245 58.1708 714.818 58.9445 712.497 60.4917C710.247 62.039 708.313 63.9731 706.695 66.294V106.277H694.88V50.5752Z" fill="#919194"/>
<path d="M800.439 103.323C798.33 104.659 795.868 105.714 793.055 106.488C790.242 107.261 787.288 107.648 784.193 107.648C777.863 107.648 772.975 106.031 769.529 102.795C766.083 99.4899 764.36 95.0239 764.36 89.3975V59.2258H752.017V50.5752H764.36V38.1267L776.175 36.7553V50.5752H795.059L793.688 59.2258H776.175V89.292C776.175 92.3162 776.949 94.5668 778.496 96.0437C780.044 97.4503 782.505 98.1536 785.881 98.1536C789.609 98.1536 793.055 97.2745 796.22 95.5162L800.439 103.323Z" fill="#919194"/>
</svg>
